<?xml version="1.0" encoding="iso-8859-1"?>
<!-- Generator: Adobe Illustrator 19.0.0, SVG Export Plug-In . SVG Version: 6.00 Build 0)  -->
<svg version="1.1" id="Capa_1" xmlns="http://www.w3.org/2000/svg" xmlns:xlink="http://www.w3.org/1999/xlink" x="0px" y="0px"
	 viewBox="0 0 511.998 511.998" style="enable-background:new 0 0 511.998 511.998;" xml:space="preserve">
<path style="fill:#9C969E;" d="M464.419,372.233h-9.543c-2.284-12.412-7.126-23.917-14.022-33.924l6.727-6.727
	c3.131-3.13,3.131-8.206,0-11.336l-11.336-11.337c-3.13-3.13-8.206-3.13-11.337,0l-6.727,6.727
	c-10.007-6.897-21.511-11.738-33.923-14.022v-9.543c0-4.427-3.589-8.016-8.016-8.016H360.21c-4.427,0-8.016,3.589-8.016,8.016v9.543
	c-12.412,2.284-23.916,7.125-33.923,14.022l-6.727-6.727c-3.131-3.13-8.206-3.13-11.337,0l-11.336,11.337
	c-3.131,3.13-3.131,8.206,0,11.336l6.727,6.727c-6.897,10.007-11.738,21.512-14.022,33.924h-9.543c-4.427,0-8.016,3.589-8.016,8.016
	v16.032c0,4.427,3.589,8.016,8.016,8.016h9.543c2.284,12.412,7.126,23.916,14.022,33.923l-6.727,6.727
	c-3.131,3.13-3.131,8.206,0,11.337l11.336,11.336c3.13,3.13,8.206,3.13,11.337,0l6.727-6.727
	c10.007,6.897,21.511,11.738,33.923,14.022v9.543c0,4.427,3.589,8.016,8.016,8.016h16.032c4.427,0,8.016-3.589,8.016-8.016v-9.543
	c12.412-2.284,23.916-7.126,33.923-14.022l6.727,6.727c3.131,3.13,8.206,3.13,11.337,0l11.336-11.336
	c3.131-3.131,3.131-8.206,0-11.337l-6.727-6.727c6.897-10.007,11.738-21.511,14.022-33.923h9.543c4.427,0,8.016-3.589,8.016-8.016
	v-16.032C472.435,375.822,468.847,372.233,464.419,372.233z M368.226,436.362c-26.563,0-48.097-21.534-48.097-48.097
	c0-26.563,21.534-48.097,48.097-48.097s48.097,21.534,48.097,48.097C416.323,414.828,394.789,436.362,368.226,436.362z"/>
<path style="fill:#867E88;" d="M436.363,388.265c0-37.632-30.506-68.137-68.137-68.137s-68.137,30.506-68.137,68.137
	s30.506,68.137,68.137,68.137S436.363,425.896,436.363,388.265z M320.129,388.265c0-26.563,21.534-48.097,48.097-48.097
	c26.563,0,48.097,21.534,48.097,48.097s-21.534,48.097-48.097,48.097C341.663,436.362,320.129,414.828,320.129,388.265z"/>
<path style="fill:#9C969E;" d="M496.484,175.839h-9.34c-2.519-11.528-8.596-21.696-17.004-29.374l4.693-8.127
	c2.214-3.834,0.9-8.737-2.934-10.95l-6.942-4.008c-3.834-2.213-8.737-0.9-10.95,2.934l-4.66,8.071
	c-5.362-1.702-11.066-2.634-16.992-2.634c-5.925,0-11.63,0.932-16.992,2.634l-4.66-8.071c-2.213-3.834-7.116-5.148-10.95-2.934
	l-6.942,4.008c-3.834,2.213-5.148,7.116-2.934,10.95l4.693,8.128c-8.408,7.679-14.485,17.846-17.004,29.374h-9.34
	c-4.427,0-8.016,3.589-8.016,8.016v8.016c0,4.427,3.589,8.016,8.016,8.016h9.34c2.519,11.528,8.596,21.695,17.004,29.374
	l-4.693,8.127c-2.214,3.834-0.9,8.737,2.934,10.95l6.942,4.008c3.834,2.214,8.737,0.9,10.95-2.934l4.66-8.071
	c5.362,1.702,11.066,2.635,16.992,2.635s11.63-0.933,16.992-2.635l4.66,8.071c2.213,3.834,7.116,5.148,10.95,2.934l6.942-4.008
	c3.834-2.213,5.148-7.116,2.934-10.95l-4.692-8.127c8.408-7.679,14.484-17.846,17.003-29.374h9.34c4.427,0,8.016-3.589,8.016-8.016
	v-8.016C504.5,179.426,500.911,175.839,496.484,175.839z M432.355,211.91c-13.282,0-24.048-10.767-24.048-24.048
	c0-13.282,10.767-24.048,24.048-24.048c13.282,0,24.048,10.767,24.048,24.048C456.403,201.145,445.636,211.91,432.355,211.91z"/>
<path style="fill:#B7B2B8;" d="M304.097,147.781h-18.363c-3.328-17.529-10.165-33.806-19.845-48.025l12.951-12.951
	c3.13-3.13,3.13-8.206,0-11.336l-22.673-22.673c-3.13-3.131-8.206-3.131-11.336,0L231.88,65.747
	c-14.219-9.679-30.495-16.516-48.024-19.845V27.539c0-4.427-3.589-8.016-8.016-8.016h-32.065c-4.427,0-8.016,3.589-8.016,8.016
	v18.363c-17.529,3.328-33.806,10.165-48.024,19.845L74.782,52.796c-3.13-3.131-8.206-3.131-11.336,0L40.773,75.469
	c-3.13,3.13-3.13,8.206,0,11.336l12.951,12.951c-9.679,14.219-16.516,30.496-19.845,48.025H15.516c-4.427,0-8.016,3.589-8.016,8.016
	v32.065c0,4.427,3.589,8.016,8.016,8.016h18.363c3.328,17.528,10.166,33.806,19.845,48.024l-12.951,12.951
	c-3.13,3.131-3.13,8.206,0,11.337l22.673,22.673c3.13,3.13,8.206,3.13,11.336,0l12.951-12.951
	c14.219,9.679,30.496,16.516,48.025,19.845v18.363c0,4.427,3.589,8.016,8.016,8.016h32.065c4.427,0,8.016-3.589,8.016-8.016v-18.363
	c17.529-3.328,33.806-10.165,48.025-19.845l12.951,12.951c3.13,3.13,8.206,3.13,11.336,0l22.673-22.673
	c3.13-3.131,3.13-8.206,0-11.337l-12.951-12.951c9.679-14.218,16.516-30.496,19.845-48.024h18.363c4.427,0,8.016-3.589,8.016-8.016
	v-32.065C312.113,151.37,308.524,147.781,304.097,147.781z M159.806,235.96c-35.417,0-64.129-28.712-64.129-64.129
	s28.712-64.129,64.129-64.129s64.129,28.712,64.129,64.129S195.224,235.96,159.806,235.96z"/>
<path style="fill:#9C969E;" d="M256,171.83c0-53.126-43.067-96.194-96.194-96.194c-53.126,0-96.194,43.067-96.194,96.194
	c0,53.126,43.068,96.194,96.194,96.194C212.933,268.023,256,224.956,256,171.83z M95.677,171.83
	c0-35.417,28.712-64.129,64.129-64.129s64.129,28.712,64.129,64.129s-28.712,64.129-64.129,64.129S95.677,207.247,95.677,171.83z"/>
<path style="fill:#867E88;" d="M432.355,147.781c-22.136,0-40.081,17.944-40.081,40.081c0,22.136,17.945,40.081,40.081,40.081
	s40.081-17.945,40.081-40.081C472.435,165.727,454.491,147.781,432.355,147.781z M432.355,211.91
	c-13.282,0-24.048-10.767-24.048-24.048c0-13.282,10.767-24.048,24.048-24.048c13.282,0,24.048,10.767,24.048,24.048
	C456.403,201.145,445.636,211.91,432.355,211.91z"/>
<path d="M284.144,273.493c6.049-6.05,6.049-15.893,0-21.942l-8.663-8.663c7.522-12.219,12.993-25.464,16.321-39.509h12.295
	c8.556,0,15.516-6.96,15.516-15.516v-32.064c0-8.556-6.96-15.516-15.516-15.516h-12.295c-3.328-14.045-8.799-27.29-16.321-39.51
	l8.663-8.663c2.931-2.931,4.544-6.827,4.544-10.971c0-4.145-1.614-8.041-4.544-10.972l-22.672-22.672
	c-2.931-2.931-6.827-4.545-10.972-4.545s-8.041,1.614-10.971,4.545l-8.663,8.663c-12.22-7.522-25.464-12.993-39.509-16.321V27.54
	c0-8.556-6.96-15.516-15.516-15.516h-32.064c-8.556,0-15.516,6.96-15.516,15.516v12.295c-14.045,3.328-27.29,8.799-39.509,16.321
	l-8.663-8.662c-2.931-2.931-6.827-4.545-10.972-4.545s-8.042,1.614-10.971,4.545L35.47,70.166
	c-2.931,2.931-4.544,6.827-4.544,10.972c0,4.144,1.614,8.041,4.544,10.971l8.663,8.663c-7.522,12.22-12.993,25.465-16.32,39.509
	H15.516C6.96,140.281,0,147.242,0,155.798v32.064c0,8.556,6.96,15.516,15.516,15.516h12.296c3.327,14.044,8.798,27.289,16.32,39.509
	l-8.663,8.663c-6.049,6.049-6.049,15.893,0,21.943l22.673,22.673c2.93,2.931,6.827,4.545,10.972,4.545s8.041-1.614,10.971-4.544
	l8.663-8.663c12.219,7.522,25.464,12.993,39.51,16.321v12.296c0,8.556,6.96,15.516,15.516,15.516h32.064
	c8.556,0,15.516-6.96,15.516-15.516v-12.296c14.045-3.328,27.29-8.799,39.509-16.321l8.663,8.663
	c2.931,2.931,6.827,4.544,10.971,4.544c4.145,0,8.041-1.614,10.972-4.544L284.144,273.493z M250.134,285.56l-12.951-12.951
	c-2.547-2.547-6.545-2.924-9.524-0.896c-13.643,9.288-28.852,15.571-45.204,18.676c-3.539,0.672-6.101,3.766-6.101,7.368v18.363
	c0,0.285-0.231,0.516-0.516,0.516h-32.064c-0.285,0-0.516-0.231-0.516-0.516v-18.363c0-3.603-2.562-6.696-6.101-7.368
	c-16.352-3.105-31.561-9.389-45.204-18.676c-1.283-0.873-2.754-1.3-4.218-1.3c-1.935,0-3.855,0.747-5.306,2.197l-12.951,12.951
	c-0.038,0.037-0.151,0.151-0.365,0.151s-0.327-0.113-0.365-0.151l-22.673-22.673c-0.201-0.202-0.202-0.529,0-0.73l12.951-12.951
	c2.547-2.547,2.924-6.546,0.896-9.523c-9.288-13.645-15.571-28.853-18.676-45.203c-0.672-3.54-3.766-6.101-7.368-6.101H15.516
	c-0.285,0-0.516-0.231-0.516-0.516V155.8c0-0.285,0.231-0.516,0.516-0.516h18.363c3.603,0,6.696-2.562,7.368-6.101
	c3.104-16.35,9.388-31.559,18.676-45.204c2.027-2.978,1.65-6.976-0.897-9.523l-12.95-12.954c-0.201-0.201-0.201-0.529,0-0.73
	L68.75,58.099c0.037-0.037,0.15-0.15,0.364-0.15s0.327,0.114,0.365,0.152l12.952,12.951c2.547,2.547,6.545,2.923,9.524,0.896
	c13.643-9.288,28.852-15.571,45.203-18.676c3.539-0.672,6.101-3.766,6.101-7.368V27.54c0-0.285,0.231-0.516,0.516-0.516h32.064
	c0.285,0,0.516,0.231,0.516,0.516v18.363c0,3.603,2.562,6.696,6.101,7.368c16.351,3.105,31.56,9.389,45.204,18.676
	c2.977,2.027,6.976,1.651,9.523-0.896l12.951-12.952c0.038-0.037,0.151-0.151,0.364-0.151c0.214,0,0.327,0.114,0.365,0.151
	l22.673,22.673c0.201,0.201,0.201,0.529,0,0.73l-12.951,12.951c-2.547,2.547-2.924,6.546-0.896,9.523
	c9.288,13.644,15.571,28.853,18.676,45.204c0.672,3.539,3.766,6.101,7.368,6.101h18.363c0.285,0,0.516,0.231,0.516,0.516v32.064
	c0,0.285-0.231,0.516-0.516,0.516h-18.363c-3.603,0-6.696,2.562-7.368,6.101c-3.105,16.352-9.389,31.56-18.676,45.203
	c-2.027,2.978-1.651,6.977,0.896,9.524l12.951,12.951c0.201,0.201,0.201,0.529,0,0.73l-22.673,22.673
	C250.663,285.761,250.335,285.762,250.134,285.56z"/>
<path d="M97.09,109.114c30.7-30.7,78.655-34.7,114.028-9.51c3.374,2.402,8.056,1.615,10.46-1.759
	c2.403-3.374,1.615-8.057-1.759-10.46c-19.741-14.058-43.972-20.762-68.224-18.877c-24.551,1.908-47.675,12.563-65.112,30
	s-28.091,40.561-29.999,65.111c-1.885,24.253,4.818,48.482,18.876,68.224c1.463,2.055,3.771,3.15,6.116,3.15
	c1.505,0,3.025-0.452,4.344-1.391c3.374-2.403,4.162-7.086,1.759-10.46C62.391,187.77,66.391,139.813,97.09,109.114z"/>
<path d="M244.251,111.816c-2.403-3.375-7.087-4.161-10.46-1.759c-3.374,2.403-4.162,7.086-1.759,10.46
	c25.189,35.372,21.19,83.328-9.51,114.028s-78.656,34.699-114.028,9.511c-3.375-2.402-8.058-1.616-10.46,1.759
	c-2.403,3.374-1.615,8.057,1.759,10.46c17.559,12.503,38.664,19.188,60.182,19.188c2.676,0,5.36-0.104,8.043-0.312
	c24.551-1.909,47.675-12.563,65.111-30c17.437-17.437,28.091-40.561,30-65.112C265.014,155.787,258.31,131.559,244.251,111.816z"/>
<path d="M159.807,243.458c39.496,0,71.629-32.133,71.629-71.629s-32.133-71.629-71.629-71.629
	c-39.497,0-71.629,32.133-71.629,71.629S120.31,243.458,159.807,243.458z M159.807,115.201c31.225,0,56.629,25.404,56.629,56.629
	s-25.404,56.629-56.629,56.629c-31.226,0-56.629-25.404-56.629-56.629S128.581,115.201,159.807,115.201z"/>
<path d="M496.484,168.339h-3.603c-2.753-8.556-7.292-16.391-13.377-23.094l1.823-3.157c2.072-3.589,2.623-7.771,1.55-11.774
	s-3.64-7.35-7.229-9.421l-6.942-4.008c-3.59-2.073-7.771-2.623-11.774-1.55s-7.349,3.64-9.421,7.229l-1.793,3.106
	c-8.774-1.887-17.952-1.887-26.727,0l-1.793-3.106c-2.072-3.589-5.418-6.157-9.421-7.229c-4.003-1.072-8.185-0.522-11.774,1.55
	l-6.941,4.007c-3.59,2.072-6.157,5.418-7.23,9.422s-0.522,8.185,1.55,11.774l1.823,3.158c-6.086,6.704-10.624,14.537-13.377,23.093
	h-3.603c-8.556,0-15.516,6.96-15.516,15.516v8.016c0,8.556,6.96,15.516,15.516,15.516h3.603c2.754,8.556,7.291,16.389,13.377,23.093
	l-1.823,3.157c-2.072,3.589-2.623,7.771-1.55,11.774c1.073,4.004,3.64,7.35,7.229,9.421l6.942,4.008
	c2.391,1.38,5.044,2.086,7.733,2.086c1.348,0,2.704-0.177,4.041-0.536c4.004-1.073,7.35-3.64,9.421-7.229l1.793-3.106
	c8.774,1.887,17.952,1.886,26.727,0l1.792,3.105c2.072,3.59,5.418,6.157,9.422,7.23c4.002,1.074,8.185,0.522,11.774-1.55
	l6.941-4.008c3.589-2.072,6.157-5.418,7.229-9.421c1.073-4.003,0.522-8.185-1.55-11.774l-1.823-3.157
	c6.084-6.704,10.623-14.538,13.376-23.093h3.603c8.556,0,15.516-6.96,15.516-15.516v-8.016
	C512,175.298,505.04,168.339,496.484,168.339z M497,191.87c0,0.285-0.231,0.516-0.516,0.516h-9.34c-3.525,0-6.575,2.455-7.327,5.899
	c-2.14,9.792-7.235,18.587-14.734,25.437c-2.6,2.375-3.198,6.239-1.438,9.288l4.692,8.127c0.026,0.046,0.107,0.186,0.052,0.392
	c-0.055,0.207-0.195,0.287-0.241,0.313l-6.941,4.008c-0.046,0.026-0.184,0.109-0.392,0.052c-0.206-0.055-0.286-0.194-0.313-0.241
	l-4.66-8.071c-1.761-3.05-5.406-4.464-8.765-3.398c-9.542,3.029-19.902,3.029-29.444,0c-3.357-1.066-7.003,0.348-8.765,3.398
	l-4.661,8.072c-0.026,0.046-0.106,0.185-0.313,0.24c-0.208,0.057-0.346-0.025-0.392-0.052l-6.942-4.009
	c-0.046-0.026-0.185-0.106-0.24-0.313s0.025-0.346,0.052-0.392l4.692-8.127c1.761-3.049,1.163-6.913-1.438-9.288
	c-7.5-6.849-12.595-15.645-14.734-25.437c-0.752-3.444-3.802-5.899-7.327-5.899h-9.34c-0.285,0-0.516-0.231-0.516-0.516v-8.016
	c0-0.285,0.231-0.516,0.516-0.516h9.34c3.525,0,6.575-2.455,7.327-5.899c2.14-9.792,7.235-18.587,14.734-25.437
	c2.6-2.375,3.198-6.238,1.438-9.288l-4.692-8.128c-0.026-0.046-0.107-0.185-0.052-0.391c0.055-0.207,0.194-0.287,0.241-0.313
	l6.941-4.008c0.046-0.027,0.186-0.108,0.392-0.052c0.207,0.056,0.287,0.195,0.313,0.241l4.66,8.071
	c1.761,3.05,5.406,4.464,8.765,3.398c9.542-3.029,19.902-3.029,29.444,0c3.357,1.067,7.004-0.348,8.765-3.398l4.66-8.071
	c0.027-0.046,0.107-0.185,0.313-0.241c0.206-0.055,0.346,0.025,0.392,0.052l6.942,4.008c0.046,0.027,0.185,0.107,0.241,0.313
	c0.055,0.207-0.025,0.346-0.052,0.391l-4.693,8.127c-1.761,3.05-1.163,6.914,1.438,9.289c7.5,6.849,12.595,15.645,14.734,25.437
	c0.752,3.444,3.802,5.899,7.327,5.899h9.34c0.285,0,0.516,0.231,0.516,0.516v8.017H497z"/>
<path d="M456.403,180.363c-4.142,0-7.5,3.358-7.5,7.5c0,9.125-7.423,16.548-16.548,16.548s-16.548-7.423-16.548-16.548
	s7.423-16.548,16.548-16.548c4.142,0,7.5-3.358,7.5-7.5s-3.358-7.5-7.5-7.5c-17.396,0-31.548,14.152-31.548,31.548
	s14.152,31.548,31.548,31.548s31.548-14.152,31.548-31.548C463.903,183.72,460.545,180.363,456.403,180.363z"/>
<path d="M464.419,364.733h-3.502c-2.258-8.976-5.771-17.477-10.491-25.39l2.457-2.457c2.932-2.931,4.546-6.827,4.546-10.972
	c0-4.145-1.614-8.041-4.544-10.971l-11.336-11.337c-6.05-6.05-15.894-6.05-21.943,0l-2.458,2.458
	c-7.913-4.72-16.413-8.232-25.389-10.49v-3.502c0-8.556-6.961-15.516-15.517-15.516H360.21c-8.556,0-15.516,6.96-15.516,15.516
	v3.502c-8.976,2.258-17.476,5.77-25.389,10.49l-2.458-2.458c-6.05-6.049-15.894-6.049-21.943,0l-11.336,11.337
	c-2.931,2.931-4.544,6.827-4.544,10.971c0,4.145,1.614,8.042,4.544,10.971l2.458,2.458c-4.72,7.913-8.232,16.413-10.491,25.389
	h-3.502c-8.556,0-15.516,6.96-15.516,15.516v16.032c0,8.556,6.96,15.516,15.516,15.516h3.502
	c2.258,8.976,5.771,17.476,10.491,25.389l-2.458,2.458c-6.049,6.049-6.049,15.893,0,21.943l11.336,11.336
	c6.049,6.049,15.893,6.049,21.943,0l2.458-2.458c7.913,4.721,16.413,8.233,25.389,10.491v3.502c0,8.556,6.96,15.516,15.516,15.516
	h16.032c8.556,0,15.517-6.96,15.517-15.516v-3.502c8.976-2.258,17.476-5.77,25.389-10.491l2.458,2.458
	c6.05,6.049,15.895,6.049,21.943,0l11.336-11.336c2.931-2.931,4.545-6.827,4.545-10.972s-1.614-8.041-4.544-10.971l-2.458-2.458
	c4.721-7.913,8.233-16.414,10.491-25.389h3.502c8.556,0,15.516-6.96,15.516-15.516v-16.031
	C479.936,371.693,472.975,364.733,464.419,364.733z M464.936,396.281c0,0.285-0.231,0.516-0.516,0.516h-9.542
	c-3.619,0-6.721,2.583-7.376,6.143c-2.069,11.244-6.383,21.682-12.822,31.025c-2.054,2.979-1.687,7,0.872,9.559l6.728,6.728
	c0.037,0.038,0.151,0.151,0.151,0.364c0,0.214-0.114,0.328-0.151,0.365l-11.336,11.336c-0.201,0.201-0.529,0.201-0.73,0
	l-6.727-6.727c-2.559-2.559-6.579-2.925-9.56-0.872c-9.342,6.439-19.78,10.753-31.023,12.822c-3.559,0.655-6.143,3.757-6.143,7.376
	v9.542c0,0.285-0.232,0.516-0.517,0.516h-16.032c-0.285,0-0.516-0.231-0.516-0.516v-9.542c0-3.619-2.584-6.721-6.143-7.376
	c-11.243-2.069-21.681-6.383-31.023-12.822c-1.291-0.89-2.776-1.325-4.254-1.325c-1.934,0-3.855,0.746-5.306,2.197l-6.727,6.727
	c-0.202,0.202-0.53,0.202-0.731,0l-11.336-11.336c-0.202-0.202-0.202-0.529,0-0.73l6.727-6.727c2.559-2.559,2.926-6.58,0.872-9.559
	c-6.438-9.343-10.752-19.781-12.822-31.025c-0.655-3.559-3.757-6.143-7.376-6.143h-9.542c-0.285,0-0.516-0.231-0.516-0.516v-16.032
	c0-0.285,0.231-0.516,0.516-0.516h9.542c3.619,0,6.721-2.583,7.376-6.143c2.069-11.244,6.383-21.683,12.822-31.025
	c2.054-2.979,1.687-7-0.872-9.559l-6.728-6.728c-0.037-0.037-0.15-0.151-0.15-0.364s0.114-0.327,0.151-0.365l11.336-11.337
	c0.201-0.201,0.529-0.201,0.73,0l6.727,6.727c2.559,2.559,6.58,2.925,9.56,0.872c9.342-6.438,19.78-10.752,31.023-12.821
	c3.559-0.655,6.143-3.757,6.143-7.376v-9.542c0-0.285,0.231-0.516,0.516-0.516h16.032c0.285,0,0.517,0.231,0.517,0.516v9.542
	c0,3.619,2.584,6.721,6.143,7.376c11.244,2.069,21.682,6.383,31.023,12.821c2.98,2.054,7.001,1.687,9.56-0.872l6.727-6.727
	c0.202-0.201,0.53-0.202,0.73,0l11.337,11.337c0.037,0.037,0.151,0.151,0.151,0.364s-0.113,0.327-0.152,0.365l-6.727,6.727
	c-2.559,2.559-2.925,6.58-0.872,9.559c6.438,9.343,10.752,19.781,12.822,31.025c0.655,3.559,3.757,6.143,7.376,6.143h9.542
	c0.285,0,0.516,0.231,0.516,0.516L464.936,396.281L464.936,396.281z"/>
<path d="M408.366,360.8c-3.739,1.783-5.324,6.26-3.54,9.998c7.395,15.501,4.222,34.057-7.894,46.174
	c-12.117,12.116-30.672,15.288-46.173,7.894c-3.738-1.786-8.215-0.198-9.998,3.54c-1.784,3.739-0.199,8.215,3.54,9.999
	c7.634,3.642,15.81,5.411,23.923,5.411c14.443,0,28.686-5.607,39.315-16.236c16.6-16.6,20.951-42.014,10.826-63.238
	C416.582,360.602,412.104,359.016,408.366,360.8z"/>
<path d="M385.692,351.665c3.739,1.785,8.215,0.198,9.999-3.54c1.784-3.739,0.199-8.215-3.54-9.999
	c-21.226-10.126-46.638-5.775-63.238,10.825c-16.601,16.601-20.951,42.014-10.826,63.239c1.286,2.696,3.974,4.272,6.774,4.272
	c1.083,0,2.182-0.236,3.224-0.733c3.738-1.783,5.323-6.26,3.54-9.998c-7.395-15.501-4.223-34.057,7.894-46.174
	C351.636,347.443,370.192,344.27,385.692,351.665z"/>
<g>
</g>
<g>
</g>
<g>
</g>
<g>
</g>
<g>
</g>
<g>
</g>
<g>
</g>
<g>
</g>
<g>
</g>
<g>
</g>
<g>
</g>
<g>
</g>
<g>
</g>
<g>
</g>
<g>
</g>
</svg>
