<svg xmlns="http://www.w3.org/2000/svg" enable-background="new 0 0 218.08 50.83" version="1.1" viewBox="0 0 218.08 50.83" x="0px" xml:space="preserve" y="0px" style="fill: rgb(0, 0, 0);" role="img" aria-label="Modern Gradient Line Wavy">
<g>
	<linearGradient gradientUnits="userSpaceOnUse" id="__id32_sxv3d4p75" x2="218.08" y1="25.413" y2="25.413">
		<stop offset="0" style="stop-color: rgb(5, 246, 202);"></stop>
		<stop offset="1" style="stop-color: rgb(246, 11, 150);"></stop>
	</linearGradient>
	<path d="m155.91 50.83c-17.65 0-27.38-9.71-34.48-16.8-6.2-6.19-8.81-8.36-13.7-8.36-4.59 0-6.74 1.94-12.18 7.95-6.21 6.85-15.6 17.21-33.46 17.21-17.16 0-26.58-9.39-33.45-16.24-6.2-6.18-9.22-8.92-15.81-8.92-7.08-0.01-12.83-5.75-12.83-12.84s5.75-12.83 12.83-12.83c17.49 0 27 9.49 33.94 16.41 6.08 6.07 9.04 8.75 15.32 8.75 6.22 0 8.92-2.69 14.44-8.78 6.27-6.91 14.85-16.38 31.2-16.38 15.94 0 25.13 9.17 31.83 15.86 6.29 6.28 9.61 9.3 16.35 9.3 6.4 0 9.22-2.48 14.98-8.1 6.87-6.69 16.27-15.86 34.35-15.86 7.09 0 12.83 5.75 12.83 12.83s-5.75 12.83-12.83 12.83c-7.34 0-10.34 2.63-16.44 8.57-6.66 6.5-15.78 15.4-32.89 15.4z" style="fill: url(&quot;#__id32_sxv3d4p75&quot;);"></path>
</g>
</svg>
