<?xml version="1.0" encoding="utf-8"?>
<!-- Generator: Adobe Illustrator 23.0.4, SVG Export Plug-In . SVG Version: 6.00 Build 0)  -->
<svg version="1.1" xmlns="http://www.w3.org/2000/svg" xmlns:xlink="http://www.w3.org/1999/xlink" x="0px" y="0px"
	 viewBox="0 0 512 512" style="enable-background:new 0 0 512 512;" xml:space="preserve">
<style type="text/css">
	.st0{fill:#FFFFFF;}
	.st1{fill:#A36B5D;}
	.st2{fill:#684035;}
	.st3{fill:#D1B100;}
	.st4{fill:#E1CB4D;}
	.st5{fill:#FFD800;}
	.st6{fill:#C49562;}
	.st7{fill:#F0C087;}
	.st8{fill:#E6AF78;}
	.st9{fill:#CCD7F2;}
	.st10{fill:#BCCCED;}
	.st11{fill:#DDE4F7;}
	.st12{fill:#B7594A;}
	.st13{fill:#AA493F;}
	.st14{fill:#993B36;}
	.st15{fill:#333030;}
	.st16{opacity:0.66;fill:#CED9EA;stroke:#CED9EA;stroke-width:1.2902;stroke-miterlimit:10;}
	.st17{opacity:0.63;fill:none;stroke:#FFFFFF;stroke-width:10.322;stroke-miterlimit:10;}
</style>
<g id="white_square">
	<rect class="st0" width="512" height="512"/>
</g>
<g id="justine">
	<g id="profile">
		<g id="hair">
			<path class="st1" d="M257,7.3c-34.8,0-63,28.2-63,63v88.9c0,4.6,3.7,8.4,8.4,8.4h109.3c4.6,0,8.4-3.7,8.4-8.4
				c0-18.6,0-71.3,0-88.9C320,35.5,291.8,7.3,257,7.3z"/>
			<path class="st2" d="M215.6,159.2c0-0.9,0-88,0-88.9c0-31.1,22.5-57,52.2-62.1c-3.5-0.6-7.1-0.9-10.8-0.9c-34.8,0-63,28.2-63,63
				v88.9c0,4.6,3.7,8.4,8.4,8.4H224C219.4,167.6,215.6,163.9,215.6,159.2z"/>
		</g>
		<g id="shirt">
			<path class="st3" d="M350.9,205.8l-33.5-13c-7.1,7.8-14.5,15.9-21.7,23.8c-21.2,23-57.5,23-78.7,0c-7.1-7.7-14.4-15.7-21.4-23.4
				L163,205.8c0,0-25.2,10.4-25.2,39.1v115.9c0,8.4,6.8,15.2,15.2,15.2h208c8.4,0,15.2-6.8,15.2-15.2V244.9
				C376.1,216.2,350.9,205.8,350.9,205.8z"/>
			<path class="st4" d="M168.6,360.8V231.6c0-18.7,10.7-29.6,18.1-35l-23.6,9.2c0,0-25.2,10.4-25.2,39.1v115.9
				c0,8.4,6.8,15.2,15.2,15.2h30.7C175.3,376,168.6,369.2,168.6,360.8z"/>
			<path class="st5" d="M298.3,185.4c-5.4,6-11.3,12.4-17,18.6c-13.4,14.6-36.4,14.6-49.8,0c-5.5-6-11.4-12.4-16.7-18.3l-19.7,7.6
				c7.1,7.9,14.6,16.1,21.9,23.9c21.2,23,57.5,23,78.7,0c7.3-8,15-16.3,22.2-24.3L298.3,185.4z"/>
		</g>
		<g id="skin">
			<g>
				<path class="st6" d="M249,190.8c2.1-0.8,3.4-2.8,3.4-5v-20.7c-8.1-0.8-15.3-3.5-21.3-7.5v18.1c0,2.2-1.4,4.2-3.4,5l-13.4,5.2
					c3.9,4.4,8.2,9,12.4,13.6L249,190.8z"/>
				<path class="st6" d="M320,95.4c-4-5-10.6-7.8-18.1-6.3v33.5c0,0.3,0,0.6,0,1c7.4,1.4,14.1-1.4,18.1-6.3V95.4z"/>
			</g>
			<path class="st7" d="M299.7,80.5c-5.6-1.7-16.6-6.2-27.2-17.1c-1.7-1.8-4.6-1.6-6.1,0.2C259,72,239,92.7,214,101.9
				c-1.6,0.6-2.7,2.2-2.7,3.9v16.7c0,23.5,18.4,45.1,46.4,45.1c24.8,0,45.1-20.2,45.1-45.1v-38C302.7,82.7,301.5,81.1,299.7,80.5z"
				/>
			<g>
				<path class="st8" d="M282.7,175.7v-18c-7.2,4.8-15.8,7.6-25.1,7.6c-10.2,0-19.2-2.9-26.5-7.7v18.1c0,2.2-1.4,4.2-3.4,5
					l-13.4,5.2c5.5,6,11.5,12.6,17.2,18.8c13.4,14.6,36.4,14.6,49.8,0c5.8-6.3,11.9-13,17.5-19.1l-12.6-4.9
					C284.1,179.9,282.7,177.9,282.7,175.7z"/>
				<path class="st8" d="M302,89.1v33.5c0,0.3,0,0.6,0,1c11.9,2.3,21.9-6.3,21.9-17.2C323.8,95.4,313.9,86.8,302,89.1z"/>
				<path class="st8" d="M232.9,122.5V92.5c-5.8,3.7-12.2,7-18.9,9.5c-1.6,0.6-2.7,2.2-2.7,3.9v16.7c0,23.5,18.4,45.1,46.4,45.1
					c3.6,0,7.1-0.4,10.5-1.2C246.5,161.5,232.9,142.8,232.9,122.5z"/>
			</g>
		</g>
		<g id="laptop">
			<path class="st9" d="M344.9,323H169.1c-2.2,0-4,1.8-4,4.1v10.7c0,5.6,4.5,10.2,10,10.2h163.8c5.5,0,10-4.6,10-10.2v-10.7
				C348.9,324.9,347.1,323,344.9,323z"/>
			<path class="st10" d="M338.9,334.1H175.1c-4.8,0-8.8-3.5-9.8-8.2c-0.1,0.4-0.2,0.8-0.2,1.2v10.7c0,5.6,4.5,10.2,10,10.2h163.8
				c5.5,0,10-4.6,10-10.2v-10.7c0-0.4-0.1-0.8-0.2-1.2C347.7,330.5,343.7,334.1,338.9,334.1z"/>
			<path class="st11" d="M188.6,323.4h139.7c7.3-0.8,13.1-7.1,13.1-14.7v-86.1c0-8.2-6.6-14.8-14.7-14.8H190.2
				c-8.1,0-14.7,6.7-14.7,14.8v86.1C175.5,316.2,181.2,322.5,188.6,323.4z"/>
			<path class="st9" d="M205.5,308.6v-86.1c0-8.2,6.6-14.8,14.7-14.8h-30c-8.1,0-14.7,6.7-14.7,14.8v86.1c0,7.6,5.8,13.9,13.1,14.7
				h30C211.2,322.5,205.5,316.2,205.5,308.6z"/>
		</g>
		<g id="desk">
			<path class="st12" d="M91.4,398.4v97.7c0,4.5,3.7,8.2,8.2,8.2h314.8c4.5,0,8.2-3.7,8.2-8.2v-97.7H91.4z"/>
			<path class="st13" d="M120.9,496.2v-97.7H91.4v97.7c0,4.5,3.7,8.2,8.2,8.2H129C124.5,504.3,120.9,500.7,120.9,496.2z"/>
			<path class="st13" d="M75.7,373v16.8c0,6.7,5.4,12.1,12.1,12.1H425c6.7,0,12.1-5.4,12.1-12.1V373H75.7z"/>
			<path class="st14" d="M425,382.5H87.8c-5.8,0-10.6-4.1-11.8-9.5h-0.3v16.8c0,6.7,5.4,12.1,12.1,12.1H425
				c6.7,0,12.1-5.4,12.1-12.1V373h-0.3C435.6,378.4,430.7,382.5,425,382.5z"/>
			<path class="st13" d="M439,347.7H73.7c-7.3,0-13.2,6-13.2,13.2v0.8c0,7.3,6,13.2,13.2,13.2H439c7.3,0,13.2-6,13.2-13.2V361
				C452.3,353.7,446.3,347.7,439,347.7z"/>
			<path class="st14" d="M439,355.6H73.7c-3.7,0-7-1.5-9.4-3.9c-2.4,2.4-3.8,5.7-3.8,9.3v0.8c0,7.3,6,13.2,13.2,13.2H439
				c7.3,0,13.2-6,13.2-13.2V361c0-3.6-1.5-6.9-3.8-9.3C446,354.1,442.7,355.6,439,355.6z"/>
		</g>
		<path id="ourlines" class="st15" d="M368.7,340.3h-12.5c0.1-0.8,0.2-1.7,0.2-2.5v-10.5c0-5.4-3.7-9.9-8.8-11.2
			c0.8-2.3,1.3-4.9,1.3-7.5V223c0-3.9-1-7.6-2.8-10.9l2,0.8c1.5,0.6,20.5,9.4,20.5,32.2V340.3z M415.8,512c7.9,0,14.3-6.5,14.3-14.4
			v-88.8c8.3-2.2,14.5-9.9,14.5-18.9v-8c8.8-2.4,15.2-10.4,15.2-20V361c0-11.4-9.3-20.7-20.7-20.7h-55.4v-95.2
			c0-33.4-28.6-45.6-29.9-46.1c0,0-0.1,0-0.1-0.1c-35.6-13.8-59.9-23.2-61.2-23.7h19.2c8.7,0,15.9-7.1,15.9-15.9v-39.2
			c3-4.1,4.6-8.8,4.6-13.8s-1.6-9.7-4.6-13.8V70.5C327.5,31.6,295.9,0,257,0c-38.9,0-70.5,31.6-70.5,70.5v88.9
			c0,8.7,7.1,15.9,15.9,15.9h19.2c-27.2,10.6-49,19-61.1,23.7c0,0-0.1,0-0.1,0.1c-1.2,0.5-29.9,12.7-29.9,46.1v95.2H73.7
			c-11.4,0-20.7,9.3-20.7,20.7v0.8c0,9.5,6.5,17.5,15.2,20v8c0,9.5,6.8,17.4,15.8,19.2v88.5c0,8,6.4,14.4,14.3,14.4H415.8z M99,497
			v-87.5h316.1V497H99z M300.9,194.6l11.3,4.4c-0.5,0.6-1.1,1.2-1.6,1.7h-15.3C297.3,198.6,299.2,196.6,300.9,194.6z M312.5,159.4
			c0,0.5-0.4,0.9-0.9,0.9h-17.3c7.7-7.6,13.3-17.7,15.1-29.1c0.9-0.2,2.1-0.4,3-0.7V159.4z M317.1,106.5c0,4-3.1,7.4-6.9,9V97.5
			C314,99.1,317.1,102.4,317.1,106.5z M202.4,160.3c-0.5,0-0.9-0.4-0.9-0.9V70.5c0-30.6,24.9-55.5,55.5-55.5
			c30.6,0,55.5,24.9,55.5,55.5v11.9c-0.8-0.2-1.7-0.4-2.7-0.6c-1-3.9-3.9-7.1-7.9-8.3c-0.3-0.1-1.8-0.6-3.2-1.1
			c-5.3-2.1-13.1-6.2-20.8-14c-4.7-4.9-12.7-4.7-17.2,0.4c-7,8-25.9,27.6-49.3,36.3c-4.6,1.7-7.6,6.1-7.6,11v16.7
			c0,14.2,5.7,27.7,15.8,37.6H202.4z M218.8,122.7v-14.4c19-7.6,37.1-22,50.9-37c7.8,7.3,16.7,12.7,25.5,15.8v35.6
			c0,20.5-16.7,37.6-37.6,37.6C233.8,160.3,218.8,141.6,218.8,122.7z M283.5,187.9l2.4,0.9c-0.9,1-10,11-11,11.9h-37
			c-0.9-0.9-9.8-10.7-10.7-11.6l3.3-1.3c4.9-1.9,8.2-6.7,8.2-12v-3.8c6,2.1,12.5,3.1,19,3.1c5.7,0,11.8-1,17.6-3v3.7
			C275.3,181.2,278.6,186,283.5,187.9z M212.3,194.9c1.7,1.8,3.4,3.8,5.3,5.8H203c-0.5-0.5-1-1.1-1.5-1.6L212.3,194.9z M183,223
			c0-4,3.2-7.2,7.2-7.2h136.4c4,0,7.2,3.2,7.2,7.2v85.6c0,3.5-2.6,6.6-6.1,7.1H189.1c-3.4-0.6-6.1-3.6-6.1-7.1V223z M172.6,330.7
			h168.8v7c0,1.4-1.1,2.5-2.5,2.5H175.1c-1.4,0-2.5-1.2-2.5-2.5V330.7z M145.4,245.1c0-22.9,19.3-31.6,20.5-32.2l5.9-2.3
			c-2.4,3.5-3.8,7.8-3.8,12.3v85.6c0,2.5,0.4,4.9,1.2,7.1h-0.1c-6.3,0-11.5,5.2-11.5,11.5v10.5c0,0.9,0.1,1.7,0.2,2.5h-12.5
			L145.4,245.1L145.4,245.1z M73.7,367.6c-3.2,0-5.7-2.6-5.7-5.7V361c0-3.2,2.6-5.7,5.7-5.7h365.3c3.2,0,5.7,2.6,5.7,5.7v0.8
			c0,3.2-2.6,5.7-5.7,5.7C428.8,367.6,85,367.6,73.7,367.6z M87.8,394.5c-2.5,0-4.6-2.1-4.6-4.6v-7.3h346.4v7.3
			c0,2.5-2.1,4.6-4.6,4.6C422.8,394.5,94.1,394.5,87.8,394.5z"/>
	</g>
	<g id="glasses">
		<path class="st16" d="M236.7,123.5c-0.8,0.1-1.5,0.1-2.2,0.1c-6,0-10.7-1.8-13.9-5.3c-5.2-5.6-5.3-14.3-5.2-17.8
			c0-0.6,0.6-1.4,1.1-1.6c2.7-1.2,8.2-3.1,14.1-3.1c2.4,0,4.7,0.3,6.8,1c8.5,2.7,12.2,6.6,12.2,13.1
			C249.7,116.8,243.7,123.1,236.7,123.5z M298.5,118.3c-3.2,3.5-7.9,5.3-13.9,5.3c-0.7,0-1.4,0-2.2-0.1c-7-0.5-12.9-6.7-12.9-13.7
			c0-6.5,3.6-10.4,12.2-13.1c2.1-0.7,4.3-1,6.8-1c5.9,0,11.4,1.9,14.1,3.1c0.5,0.2,1.1,1,1.1,1.6C303.8,104,303.7,112.6,298.5,118.3
			z"/>
		<line class="st17" x1="225.3" y1="121.5" x2="243.7" y2="95.4"/>
		<line class="st17" x1="276" y1="120.7" x2="294.5" y2="94.6"/>
		<g>
			<path class="st15" d="M283.9,132.9c-11.8,0-20.5-7.9-22.3-20.1c-0.1-0.4-0.5-2.5-2.7-2.5h-0.4c-2.2,0-2.7,2.1-2.7,2.5
				c-1.8,12.2-10.6,20.1-22.3,20.1c-5.7,0-11.3-1.9-16.2-5.4c-11.3-8.1-13.4-23.8-13.9-30.1c-0.2-3.2,2.3-6.2,5.4-6.5
				c5.1-0.6,9.8-0.9,14.1-0.9c18,0,23.8,5.5,26.9,8.4l0.5,0.4c1.9,1.7,5.4,1.9,6.8,1.9h3.4c1.4,0,4.9-0.2,6.8-1.9l0.5-0.4
				c3.1-2.9,9-8.4,26.9-8.4c4.2,0,9,0.3,14.1,0.9c3.1,0.4,5.6,3.4,5.4,6.5c-0.4,6.4-2.6,22-13.9,30.1
				C295.1,131,289.5,132.9,283.9,132.9z M287.5,100.3c-2.3,0-4.4,0.3-6.3,0.9c-7.9,2.5-11.1,5.9-11.1,11.6c0,6.2,5.3,11.8,11.5,12.2
				c0.7,0,1.4,0.1,2.1,0.1c5.6,0,9.8-1.6,12.8-4.8c4.8-5.2,4.9-13.4,4.8-16.7c0-0.1-0.2-0.3-0.3-0.3
				C298.4,102.1,293.1,100.3,287.5,100.3z M229.7,100.3c-5.7,0-10.9,1.9-13.5,3c0,0-0.2,0.2-0.2,0.4c-0.1,3.2,0,11.5,4.8,16.7
				c2.9,3.2,7.2,4.8,12.8,4.8c0.7,0,1.4,0,2.1-0.1c6.3-0.4,11.5-6,11.5-12.2c0-5.8-3.2-9.1-11.1-11.6
				C234.1,100.6,232,100.3,229.7,100.3z"/>
			<path class="st15" d="M294.5,91.3c4.2,0,8.8,0.3,13.9,0.9c2.4,0.3,4.2,2.6,4.1,5c-0.4,6.1-2.5,21.3-13.2,29
				c-4.7,3.4-10,5.2-15.3,5.2c-11,0-19.1-7.4-20.8-18.8c0-0.1-0.6-3.7-4.2-3.7l-0.2,0l-0.2,0c-3.6,0-4.2,3.6-4.2,3.7
				c-1.7,11.4-9.9,18.8-20.8,18.8c-5.3,0-10.6-1.8-15.3-5.2c-10.7-7.7-12.8-22.9-13.2-29c-0.2-2.4,1.7-4.7,4.1-5
				c5-0.6,9.7-0.9,13.9-0.9c17.4,0,22.9,5.2,25.9,8l0.5,0.4c2.2,2,5.9,2.3,7.8,2.3l1.7,0l1.7,0c2,0,5.6-0.3,7.8-2.3l0.5-0.4
				C271.6,96.6,277.1,91.3,294.5,91.3 M283.6,126.6c6,0,10.7-1.8,13.9-5.3c5.2-5.6,5.3-14.3,5.2-17.8c0-0.6-0.6-1.4-1.1-1.6
				c-2.7-1.2-8.2-3.1-14.1-3.1c-2.4,0-4.7,0.3-6.8,1c-8.5,2.7-12.2,6.6-12.2,13.1c0,7,5.9,13.2,12.9,13.7
				C282.2,126.6,282.9,126.6,283.6,126.6 M233.6,126.6c0.7,0,1.4,0,2.2-0.1c7-0.5,12.9-6.7,12.9-13.7c0-6.5-3.6-10.4-12.2-13.1
				c-2.1-0.7-4.3-1-6.8-1c-5.9,0-11.4,1.9-14.1,3.1c-0.5,0.2-1.1,1-1.1,1.6c-0.2,3.5,0,12.2,5.2,17.8
				C222.9,124.8,227.6,126.6,233.6,126.6 M294.5,88.3c-18.5,0-24.7,5.7-28,8.8l-0.5,0.4c-1,0.9-3.2,1.5-5.8,1.5l-1.7,0l-1.7,0
				c-2.6,0-4.8-0.6-5.8-1.5l-0.5-0.4c-3.3-3.1-9.4-8.8-28-8.8c-4.3,0-9.1,0.3-14.2,0.9c-4,0.5-7,4.1-6.7,8.1
				c0.4,6.6,2.7,22.8,14.5,31.2c5.2,3.7,11.1,5.7,17.1,5.7c12.5,0,21.9-8.4,23.8-21.3c0.2-0.8,0.6-1.2,1.3-1.2l0.2,0l0,0l0,0l0.2,0
				c0.7,0,1.1,0.4,1.2,1.2c1.9,13,11.3,21.3,23.8,21.3c6,0,11.9-2,17.1-5.7c11.8-8.5,14.1-24.7,14.5-31.2c0.3-4-2.7-7.7-6.7-8.1
				C303.6,88.7,298.8,88.3,294.5,88.3L294.5,88.3z M283.6,123.6c-0.7,0-1.3,0-2-0.1c-5.4-0.4-10.1-5.4-10.1-10.7
				c0-4.2,1.7-7.6,10.1-10.2c1.8-0.6,3.7-0.8,5.8-0.8c5,0,9.6,1.5,12.3,2.6c0.1,3.5-0.3,10.5-4.4,14.9
				C292.7,122.1,288.7,123.6,283.6,123.6L283.6,123.6z M217.5,104.3c2.7-1.1,7.3-2.6,12.3-2.6c2.1,0,4.1,0.3,5.8,0.8
				c8.4,2.7,10.1,6,10.1,10.2c0,5.3-4.7,10.3-10.1,10.7c-0.7,0-1.3,0.1-2,0.1c-5.1,0-9-1.5-11.7-4.3
				C217.8,114.8,217.4,107.8,217.5,104.3L217.5,104.3z"/>
		</g>
	</g>
</g>
</svg>
